<svg width="70" height="70" viewBox="0 0 70 70" fill="none" xmlns="http://www.w3.org/2000/svg">
<g clip-path="url(#clip0_56_329)">
<path d="M35 69C53.7777 69 69 53.7777 69 35C69 16.2223 53.7777 1 35 1C16.2223 1 1 16.2223 1 35C1 53.7777 16.2223 69 35 69Z" stroke="white" stroke-width="2"/>
<path d="M54.6097 33.8888L41.1901 20.4691C40.7081 19.9062 39.8609 19.8406 39.298 20.3228C38.7351 20.8048 38.6695 21.652 39.1516 22.2149C39.1966 22.2674 39.2455 22.3164 39.298 22.3612L50.4228 33.4996H16.3419C15.6008 33.4996 15 34.1004 15 34.8416C15 35.5828 15.6008 36.1836 16.3419 36.1836H50.4228L39.298 47.3084C38.7351 47.7905 38.6695 48.6377 39.1516 49.2006C39.6338 49.7635 40.4809 49.8291 41.0438 49.3469C41.0963 49.3019 41.1453 49.253 41.1901 49.2006L54.6098 35.7808C55.1301 35.2576 55.1301 34.4123 54.6097 33.8888Z" fill="white"/>
</g>
<defs>
<clipPath id="clip0_56_329">
<rect width="70" height="70" fill="white"/>
</clipPath>
</defs>
</svg>
