<svg width="70" height="70" viewBox="0 0 70 70" fill="none" xmlns="http://www.w3.org/2000/svg">
<g id="Group 3196">
<circle id="Ellipse 20" cx="35" cy="35" r="34" transform="rotate(-180 35 35)" stroke="white" stroke-width="2"/>
<path id="Vector" d="M15.3903 36.1112L28.8099 49.5309C29.2919 50.0938 30.1391 50.1594 30.702 49.6772C31.2649 49.1952 31.3305 48.348 30.8484 47.7851C30.8034 47.7326 30.7545 47.6836 30.702 47.6388L19.5772 36.5004L53.6581 36.5004C54.3992 36.5004 55 35.8996 55 35.1584C55 34.4172 54.3992 33.8164 53.6581 33.8164L19.5772 33.8164L30.702 22.6916C31.2649 22.2095 31.3305 21.3623 30.8484 20.7994C30.3662 20.2365 29.5191 20.1709 28.9562 20.6531C28.9038 20.6981 28.8547 20.747 28.8099 20.7994L15.3902 34.2192C14.8699 34.7424 14.8699 35.5877 15.3903 36.1112Z" fill="white"/>
</g>
</svg>
