<svg width="28" height="28" viewBox="0 0 28 28" fill="none" xmlns="http://www.w3.org/2000/svg">
<g clip-path="url(#clip0_16_459)">
<path d="M20.4206 0H7.57933C3.40002 0 0 3.40002 0 7.57933V20.4208C0 24.5999 3.40002 27.9999 7.57933 27.9999H20.4208C24.5999 27.9999 27.9999 24.5999 27.9999 20.4208V7.57933C27.9999 3.40002 24.5999 0 20.4206 0ZM26.3585 20.4208C26.3585 23.6948 23.6948 26.3585 20.4206 26.3585H7.57933C4.30514 26.3585 1.64148 23.6948 1.64148 20.4208V7.57933C1.64148 4.30514 4.30514 1.64148 7.57933 1.64148H20.4208C23.6948 1.64148 26.3585 4.30514 26.3585 7.57933V20.4208Z" fill="#272E81"/>
<path d="M14 6.34375C9.77834 6.34375 6.34393 9.77816 6.34393 13.9998C6.34393 18.2214 9.77834 21.6558 14 21.6558C18.2216 21.6558 21.656 18.2214 21.656 13.9998C21.656 9.77816 18.2216 6.34375 14 6.34375ZM14 20.0143C10.6837 20.0143 7.98541 17.3163 7.98541 13.9998C7.98541 10.6835 10.6837 7.98523 14 7.98523C17.3164 7.98523 20.0145 10.6835 20.0145 13.9998C20.0145 17.3163 17.3164 20.0143 14 20.0143Z" fill="#272E81"/>
<path d="M21.8394 3.625C20.5919 3.625 19.5771 4.63992 19.5771 5.88726C19.5771 7.13482 20.5919 8.14974 21.8394 8.14974C23.087 8.14974 24.1019 7.13482 24.1019 5.88726C24.1019 4.63971 23.087 3.625 21.8394 3.625ZM21.8394 6.50805C21.4972 6.50805 21.2186 6.22949 21.2186 5.88726C21.2186 5.54483 21.4972 5.26648 21.8394 5.26648C22.1818 5.26648 22.4604 5.54483 22.4604 5.88726C22.4604 6.22949 22.1818 6.50805 21.8394 6.50805Z" fill="#272E81"/>
</g>
<defs>
<clipPath id="clip0_16_459">
<rect width="28" height="28" fill="white"/>
</clipPath>
</defs>
</svg>
