<svg width="1920" height="1282" viewBox="0 0 1920 1282" fill="none" xmlns="http://www.w3.org/2000/svg">
<path d="M0 0H1920V888.073C1920 993.882 1772.01 1018.22 1737.01 918.37V918.37C1715.14 855.967 1627.68 853.303 1602.43 914.414L1514.18 1127.97C1483.17 1203.02 1377.99 1206.08 1342.67 1132.96L1270.22 983.011C1243.98 928.704 1174.11 912.809 1126.96 950.42L1026.1 1030.88C987.269 1061.85 931.04 1057.27 897.737 1020.42L787.395 898.304C742.861 849.019 662.647 860.218 633.313 919.816L543.878 1101.52C512.381 1165.52 423.879 1172.49 382.745 1114.22L368.873 1094.57C320.864 1026.56 214.666 1049.91 199.624 1131.79L186.453 1203.5C165.777 1316.05 0 1300.95 0 1186.51L0 0Z" fill="#F2F0F0"/>
</svg>
