<svg width="52" height="52" viewBox="0 0 52 52" fill="none" xmlns="http://www.w3.org/2000/svg">
<path d="M10.725 31.265C9.6525 33.9624 7.96253 36.6274 5.70377 39.195C4.98877 40.0075 4.89127 41.1774 5.47625 42.0874C5.9313 42.8024 6.67873 43.1924 7.49123 43.1924C7.71875 43.1924 7.94628 43.1762 8.1738 43.0949C12.9512 41.6974 24.115 36.7412 24.4238 20.8487C24.5375 14.7225 20.0525 9.4575 14.2188 8.85625C10.985 8.53123 7.76755 9.58742 5.37875 11.7324C2.99005 13.8937 1.625 16.9812 1.625 20.1987C1.625 25.5612 5.42755 30.2575 10.725 31.265Z" fill="#DEA6D6"/>
<path d="M40.1538 8.85625C36.9362 8.53123 33.7187 9.58742 31.33 11.7324C28.9412 13.8937 27.5762 16.9812 27.5762 20.1987C27.5762 25.5612 31.3787 30.2575 36.6762 31.265C35.6037 33.9624 33.9137 36.6274 31.6549 39.195C30.9399 40.0075 30.8424 41.1774 31.4275 42.0874C31.8825 42.8024 32.63 43.1924 33.4425 43.1924C33.6699 43.1924 33.8975 43.1762 34.125 43.0949C38.9025 41.6974 50.0662 36.7412 50.375 20.8486V20.6212C50.375 14.5924 45.9388 9.4575 40.1538 8.85625Z" fill="#DEA6D6"/>
</svg>
