<svg width="1920" height="482" viewBox="0 0 1920 482" fill="none" xmlns="http://www.w3.org/2000/svg">
<g clip-path="url(#clip0_288_376)">
<rect width="1920" height="482" fill="#D18AC7"/>
<path d="M0 -848H1920V40.0733C1920 145.882 1772.01 170.223 1737.01 70.3695V70.3695C1715.14 7.9672 1627.68 5.30295 1602.43 66.4144L1514.18 279.967C1483.17 355.018 1377.99 358.08 1342.67 284.961L1270.22 135.011C1243.98 80.7036 1174.11 64.8085 1126.96 102.42L1026.1 182.878C987.269 213.854 931.04 209.271 897.737 172.416L787.395 50.3042C742.861 1.01918 662.647 12.2181 633.313 71.816L543.878 253.525C512.381 317.52 423.879 324.495 382.745 266.223L368.873 246.569C320.864 178.557 214.666 201.914 199.624 283.794L186.453 355.496C165.777 468.049 0 452.949 0 338.513L0 -848Z" fill="#F2F0F0"/>
</g>
<defs>
<clipPath id="clip0_288_376">
<rect width="1920" height="482" fill="white"/>
</clipPath>
</defs>
</svg>
