<?xml version="1.0" encoding="UTF-8" standalone="no"?>
<!-- Created with Inkscape (http://www.inkscape.org/) -->

<svg
   width="508mm"
   height="115.50338mm"
   viewBox="0 0 508 115.50338"
   version="1.1"
   id="svg561"
   xmlns="http://www.w3.org/2000/svg"
   xmlns:svg="http://www.w3.org/2000/svg">
  <defs
     id="defs558" />
  <g
     id="layer1"
     transform="translate(158.19355,-107.60314)">
    <path
       d="m -158.19355,107.60314 507.99999,0.50182 v 11.15861 c 0,27.9953 -39.15568,34.43473 -48.4161,8.01608 -5.78644,-16.51079 -28.9269,-17.21564 -35.60762,-1.04669 l -23.34948,56.50336 c -8.20473,19.85697 -36.03361,20.6666 -45.37869,1.32027 l -19.16906,-39.67401 c -6.94267,-14.36873 -25.42911,-18.57428 -37.90421,-8.62303 l -26.68588,21.28837 c -10.27403,8.19415 -25.151288,6.98235 -33.962698,-2.76754 L 50.138042,121.97052 C 38.355092,108.93053 17.131802,111.8936 9.3705123,127.66224 l -23.6630103,48.07585 c -8.33358,16.93333 -31.74973,18.77748 -42.6331,3.3602 l -3.6703,-5.19906 c -12.70265,-17.99431 -40.800602,-11.81629 -44.780472,9.84779 l -3.48482,18.97327 c -5.47053,29.77886 -49.33236,25.78365 -49.33236,-4.49527 z"
       fill="#f2f0f0"
       id="path2"
       style="stroke-width:0.264583" />
  </g>
</svg>
